<svg width="272" height="165" viewBox="0 0 272 165" fill="none" xmlns="http://www.w3.org/2000/svg">
<path d="M11.5178 73.5514V67.4364H63.2127V42.7555H0V164.466H27.7262V87.8688C27.7262 77.5298 21.6112 73.5269 11.5178 73.5269V73.5514Z" fill="#88E95D"/>
<path d="M209.211 127.58H203.096L178.415 42.7558H136.715L110.733 127.58H104.618V86.6412C104.618 75.3199 98.5763 73.6991 87.9672 73.6991V67.4367H104.618V42.7558H75.4916V127.58L87.7707 164.466H125.197L148.699 101.057C150.811 92.3633 151.745 80.1087 151.745 76.1303H160.316L188.508 164.466H225.861L271.22 0H240.915L209.186 127.58H209.211Z" fill="#88E95D"/>
</svg>
