<svg width="155" height="26" viewBox="0 0 155 26" fill="none" xmlns="http://www.w3.org/2000/svg">
<path d="M1.78693 11.4111V10.4624H9.80715V6.6333H0V25.5161H4.30159V13.6324C4.30159 12.0284 3.35287 11.4073 1.78693 11.4073V11.4111Z" fill="#88E95D"/>
<path d="M18.9891 6.12207C13.5597 6.12207 9.6201 10.2027 9.6201 16.1464C9.6201 22.0901 13.594 25.9878 19.0234 25.9878C22.6696 25.9878 25.8053 24.2733 27.5885 20.9585L24.1632 19.0268C22.9592 21.1414 21.2485 22.1968 18.9853 22.1968C15.9982 22.1968 13.8455 20.2651 13.8455 16.8741V15.453H14.7942C14.7942 16.5465 15.4152 16.9465 17.126 16.9465H27.5885V15.1977C27.5885 9.875 24.1251 6.12207 18.9853 6.12207H18.9891ZM13.9598 13.8489C14.4322 11.1895 16.2916 9.65783 18.8824 9.65783C21.4733 9.65783 23.1459 11.3724 23.2564 13.8489H13.9598Z" fill="#88E95D"/>
<path d="M39.7274 6.12207C36.9917 6.12207 35.1705 7.72612 34.3704 9.84071H33.4217V6.63262H29.1201V25.5154H33.4217V15.6358C33.4217 12.5382 35.1705 10.2789 37.9785 10.2789C40.3484 10.2789 41.7696 11.921 41.7696 15.0186V25.5154H46.1055V14.1042C46.1055 9.07488 43.3698 6.12207 39.7274 6.12207Z" fill="#88E95D"/>
<path d="M52.4159 11.4112V10.4625H58.9045V6.63336H54.9687V1.23828H50.629V6.63336H46.1445V10.4625H50.629V25.5161H54.9306V13.8497C54.9306 12.1351 54.02 11.4074 52.4159 11.4074V11.4112Z" fill="#88E95D"/>
<path d="M67.5412 6.12295C62.5462 6.12295 58.8656 8.63761 58.7551 13.084H63.1291C63.2396 11.2628 64.6951 9.94827 67.3202 9.94827C69.5796 9.94827 71.0731 10.9694 71.0731 12.6801C71.0731 13.8117 70.3797 14.246 68.669 14.467L65.1332 14.8671C61.3041 15.3053 58.5723 16.9817 58.5723 20.6279C58.5723 24.0532 61.0526 25.9849 64.4779 25.9849C67.4307 25.9849 69.3243 24.5638 70.1282 22.4111H71.0769V25.5087H75.1956V13.6631C75.1956 8.5614 72.46 6.11914 67.5412 6.11914V6.12295ZM71.0769 17.4579C71.0769 20.7384 68.7452 22.5977 66.0476 22.5977C64.2988 22.5977 63.2053 21.7595 63.2053 20.266C63.2053 18.7724 64.3369 18.1514 66.2686 17.7856L68.0898 17.4922C69.2557 17.237 69.8044 16.9474 70.132 15.9606H71.0807V17.4541L71.0769 17.4579Z" fill="#88E95D"/>
<path d="M81.8631 0H77.5615V25.5161H81.8631V0Z" fill="#88E95D"/>
<path d="M131.07 14.6536L127.497 13.8497C125.82 13.4115 125.016 12.8667 125.016 11.8456C125.016 10.4244 126.437 9.69671 128.259 9.69671C130.335 9.69671 131.977 10.6073 131.977 12.3219H135.879C135.879 7.765 132.05 6.12666 128.48 6.12666C124.727 6.12666 120.97 7.91359 120.97 11.9599C120.97 14.7298 122.757 16.4787 126.327 17.2826L129.646 18.0865C131.139 18.4142 131.871 18.9628 131.871 20.0182C131.871 21.5842 130.267 22.4605 128.19 22.4605C125.82 22.4605 124.144 21.2565 124.144 19.2181L120.28 19.2562C120.28 24.1407 124.182 26.0001 128.156 26.0001C132.53 26.0001 135.955 23.8131 135.955 19.8773C135.955 17.2178 134.351 15.3928 131.07 14.6651V14.6536Z" fill="#88E95D"/>
<path d="M141.693 15.4578C141.693 16.5513 142.315 16.9514 144.025 16.9514H154.488V15.2026C154.488 9.87989 151.024 6.12695 145.885 6.12695C140.455 6.12695 136.516 10.2076 136.516 16.1513C136.516 22.095 140.49 25.9927 145.919 25.9927C149.565 25.9927 152.701 24.2782 154.484 20.9634L151.059 19.0317C149.855 21.1463 148.144 22.2017 145.881 22.2017C142.894 22.2017 140.741 20.27 140.741 16.879V15.4578H141.69H141.693ZM145.778 9.66271C148.475 9.66271 150.041 11.3772 150.152 13.8538H140.855C141.328 11.1944 143.187 9.66271 145.778 9.66271Z" fill="#88E95D"/>
<path d="M114.988 25.5164H119.29V13.8499C119.29 12.1353 118.379 11.4076 116.775 11.4076V10.4589H119.29V6.62978H114.988V25.5125V25.5164Z" fill="#88E95D"/>
<path d="M119.308 0H114.969V4.33968H119.308V0Z" fill="#88E95D"/>
<path d="M105.009 19.7934H104.061L100.232 6.63335H93.762L89.731 19.7934H88.7823V13.442C88.7823 11.6855 87.845 11.4341 86.199 11.4341V10.4625H88.7823V6.63335H84.2635V19.7934L86.1685 25.5161H91.9751L95.6213 15.6785C95.949 14.3297 96.0938 12.4285 96.0938 11.8113H97.4235L101.797 25.5161H107.593L114.63 0H109.928L105.006 19.7934H105.009Z" fill="#88E95D"/>
</svg>
